<svg  xmlns="http://www.w3.org/2000/svg" height="24" width="24" preserveAspectRatio="xMidYMid meet" class="" fill="none"><style>path{fill: #54656f;}</style><title>channels-outline</title><path fill-rule="evenodd" clip-rule="evenodd" d="M15.8301 8.63404C16.3081 8.35745 16.9198 8.52076 17.1964 8.9988C17.7077 9.88244 18 10.9086 18 12C18 13.0914 17.7077 14.1176 17.1964 15.0012C16.9198 15.4792 16.3081 15.6425 15.8301 15.366C15.352 15.0894 15.1887 14.4776 15.4653 13.9996C15.8052 13.4122 16 12.7304 16 12C16 11.2696 15.8052 10.5878 15.4653 10.0004C15.1887 9.52237 15.352 8.91063 15.8301 8.63404ZM8.16995 8.63404C8.64798 8.91063 8.81129 9.52237 8.5347 10.0004C8.19484 10.5878 8 11.2696 8 12C8 12.7304 8.19484 13.4122 8.5347 13.9996C8.81129 14.4776 8.64798 15.0894 8.16995 15.366C7.69191 15.6425 7.08017 15.4792 6.80358 15.0012C6.29231 14.1176 6 13.0914 6 12C6 10.9086 6.29231 9.88244 6.80358 8.9988C7.08017 8.52076 7.69191 8.35745 8.16995 8.63404Z" fill="currentColor"></path><path d="M13.5 12C13.5 12.8284 12.8284 13.5 12 13.5C11.1716 13.5 10.5 12.8284 10.5 12C10.5 11.1716 11.1716 10.5 12 10.5C12.8284 10.5 13.5 11.1716 13.5 12Z" fill="currentColor"></path><path fill-rule="evenodd" clip-rule="evenodd" d="M5.33243 16.4826L5.09622 17.2728C4.86428 18.0487 4.62086 18.8707 4.41748 19.5825C5.12931 19.3791 5.95126 19.1357 6.72722 18.9038L7.51743 18.6676L8.24444 19.057C9.36447 19.6571 10.6412 20 12 20C16.4154 20 20 16.4154 20 12C20 7.58457 16.4154 4 12 4C7.58457 4 4 7.58457 4 12C4 13.3588 4.34295 14.6355 4.94296 15.7556L5.33243 16.4826ZM3.18 16.7C2.63 18.54 2 20.69 2 21C2 21.55 2.45 22 3 22C3.31 22 5.46 21.37 7.3 20.82C8.7 21.57 10.3 22 12 22C17.52 22 22 17.52 22 12C22 6.48 17.52 2 12 2C6.48 2 2 6.48 2 12C2 13.7 2.43 15.3 3.18 16.7Z" fill="currentColor"></path></svg>