<svg xmlns="http://www.w3.org/2000/svg" height="24" width="24" preserveAspectRatio="xMidYMid meet"><style>path{fill: #54656f;}</style><title>community-outline</title><path fill-rule="evenodd" clip-rule="evenodd" d="M6.37092 18.6728C6.22765 18.5403 6.10431 18.3762 6.00888 18.1973C5.88011 17.9559 5.80217 17.6876 5.79472 17.4335C5.77992 16.9291 5.75694 15.9341 5.81691 15.4918C5.84367 15.2944 5.89021 15.111 5.95079 14.9421C6.02312 14.7405 6.11792 14.5597 6.22835 14.3977C6.44698 14.077 6.72688 13.8296 7.01486 13.6386C7.04895 13.616 7.08314 13.5941 7.11736 13.5731C7.57933 13.2888 8.09602 13.1117 8.52831 12.9865C8.90306 12.878 9.34961 12.7693 9.85702 12.6823C10.485 12.5746 11.2062 12.5001 12 12.5001C12.7937 12.5001 13.5149 12.5746 14.1429 12.6823C14.6503 12.7693 15.0969 12.878 15.4716 12.9865C15.9039 13.1117 16.4206 13.2888 16.8826 13.5731C16.9168 13.5941 16.951 13.616 16.9851 13.6386C17.2731 13.8296 17.553 14.077 17.7716 14.3977C17.882 14.5597 17.9768 14.7405 18.0492 14.9421C18.1097 15.111 18.1563 15.2944 18.183 15.4918C18.243 15.9341 18.22 16.9291 18.2052 17.4335C18.1978 17.6876 18.1198 17.9559 17.9911 18.1973C17.8956 18.3762 17.7723 18.5403 17.629 18.6729C17.4138 18.872 17.1536 19 16.8756 19H7.12434C6.84632 19 6.58614 18.872 6.37092 18.6728ZM19.9606 15.4041C20.0099 15.9938 20.0031 16.2628 19.992 17C19.9887 17.22 19.985 17.3926 19.9822 17.4856C19.9692 17.9298 19.8643 18.6252 19.6869 19H22.6608C23.3769 19 23.9744 17.1535 23.9908 16.4244C24 16.0153 24.0117 16.2932 23.9736 15.9559C23.8921 15.2339 23.4788 14.7098 23.0245 14.3596C22.5875 14.0227 22.0691 13.8088 21.6087 13.6766C21.6029 13.675 21.5972 13.6733 21.5915 13.6717C21.5881 13.6707 21.5847 13.6698 21.5813 13.6688C21.5228 13.6524 21.4627 13.6362 21.401 13.6205C20.8883 13.49 20.2632 13.389 19.5555 13.389C19.5378 13.389 19.52 13.3891 19.5023 13.3892C19.4137 13.3898 19.3264 13.392 19.2405 13.3957C19.355 13.5637 19.4612 13.7454 19.5555 13.942C19.5647 13.9611 19.5738 13.9805 19.5828 13.9999C19.6332 14.1094 19.68 14.2234 19.7226 14.342C19.8237 14.6239 19.9007 14.9282 19.9447 15.253C19.9506 15.2963 19.9559 15.347 19.9606 15.4041ZM17.9339 11.4492C18.2894 11.7225 18.7156 11.9081 19.1802 11.9737C19.3028 11.991 19.4281 12 19.5555 12C20.1263 12 20.6553 11.8201 21.089 11.5141C21.7744 11.0305 22.2222 10.2319 22.2222 9.33C22.2222 7.85724 21.0283 6.67 19.5555 6.67C18.7591 6.67 18.0441 7.01722 17.5555 7.56905C17.1406 8.03762 16.8889 8.65371 16.8889 9.33C16.8889 9.57007 16.9206 9.80282 16.9801 10.0243C17.1343 10.5986 17.4753 11.0968 17.9339 11.4492ZM14.8977 9.61901C14.9641 9.52593 15.0262 9.42949 15.0835 9.33C15.3838 8.80927 15.5555 8.20499 15.5555 7.56C15.5555 7.36964 15.5406 7.18272 15.5117 7.00038C15.2434 5.30182 13.7733 4 12 4C10.2267 4 8.75657 5.30182 8.4882 7.00038C8.45939 7.18272 8.44443 7.36964 8.44443 7.56C8.44443 8.20499 8.61617 8.80927 8.91642 9.33C8.97378 9.42949 9.03584 9.52593 9.10229 9.61901C9.38894 10.0206 9.75728 10.3599 10.1831 10.6129C10.7148 10.9287 11.3362 11.11 12 11.11C12.6638 11.11 13.2851 10.9287 13.8168 10.6129C14.2427 10.3599 14.611 10.0206 14.8977 9.61901ZM7.01988 10.0243C7.07937 9.80282 7.1111 9.57007 7.1111 9.33C7.1111 8.65371 6.85934 8.03762 6.44443 7.56905C5.95581 7.01722 5.2409 6.67 4.44444 6.67C2.97168 6.67 1.77777 7.85724 1.77777 9.33C1.77777 10.2319 2.22555 11.0305 2.91093 11.5141C3.34469 11.8201 3.87362 12 4.44444 12C4.5718 12 4.6971 11.991 4.8197 11.9737C5.28435 11.9081 5.71054 11.7225 6.06606 11.4492C6.52463 11.0967 6.86561 10.5985 7.01988 10.0243ZM2.599 13.6205C2.53726 13.6362 2.47715 13.6524 2.41872 13.6688C2.41531 13.6698 2.41189 13.6707 2.40848 13.6717C2.40276 13.6733 2.39702 13.675 2.39128 13.6766C1.9309 13.8088 1.41245 14.0227 0.975466 14.3596C0.521192 14.7098 0.107939 15.2339 0.0263682 15.9559C-0.0117388 16.2932 2.95136e-05 17.0153 0.00922726 17.4244C0.0256195 18.1535 0.623061 19 1.33916 19H4.31303C4.13562 18.6252 4.03074 17.9298 4.01771 17.4856C4.01498 17.3926 4.01127 17.22 4.00795 17C3.99682 16.2628 3.99008 15.9938 4.03932 15.4041C4.04409 15.347 4.04938 15.2963 4.05525 15.253C4.09928 14.9282 4.17628 14.6239 4.27738 14.342C4.31992 14.2234 4.36671 14.1094 4.41718 13.9999C4.42615 13.9805 4.43524 13.9612 4.44444 13.942C4.53872 13.7454 4.64492 13.5636 4.7595 13.3957C4.67357 13.392 4.58626 13.3898 4.49762 13.3892C4.47995 13.3891 4.46224 13.389 4.44446 13.389C3.73676 13.389 3.11171 13.49 2.599 13.6205ZM12 14.5001C10.7893 14.5001 9.78078 14.706 9.08457 14.9076C8.70827 15.0166 8.39668 15.1342 8.16548 15.2764C7.94245 15.4137 7.86482 15.5296 7.83338 15.6173C7.81839 15.6591 7.80612 15.7064 7.79878 15.7605C7.79943 15.7557 7.7992 15.7596 7.7984 15.7735C7.79628 15.8102 7.79017 15.9159 7.78551 16.1142C7.77998 16.3491 7.77773 16.6382 7.77778 16.9391C7.77784 17.3256 7.78168 16.7121 7.78618 17H16.2138C16.2183 16.7121 16.2221 17.3256 16.2222 16.9391C16.2222 16.6383 16.22 16.3491 16.2144 16.1142C16.2098 15.9159 16.2037 15.8101 16.2016 15.7735C16.2007 15.7596 16.2005 15.7557 16.2012 15.7605C16.1938 15.7064 16.1816 15.6591 16.1666 15.6173C16.1351 15.5296 16.0575 15.4137 15.8345 15.2764C15.6033 15.1342 15.2917 15.0166 14.9154 14.9076C14.2192 14.706 13.2107 14.5001 12 14.5001ZM12 6C11.1441 6 10.4444 6.69763 10.4444 7.56C10.4444 8.41504 11.1368 9.11 12 9.11C12.8632 9.11 13.5555 8.41504 13.5555 7.56C13.5555 6.69763 12.8558 6 12 6Z" fill="currentColor"></path></svg>